<?xml version="1.0" encoding="utf-8"?>
<!-- Generator: Adobe Illustrator 17.0.2, SVG Export Plug-In . SVG Version: 6.00 Build 0)  -->
<!DOCTYPE svg PUBLIC "-//W3C//DTD SVG 1.1//EN" "http://www.w3.org/Graphics/SVG/1.1/DTD/svg11.dtd">
<svg version="1.1" id="Layer_1" xmlns="http://www.w3.org/2000/svg" xmlns:xlink="http://www.w3.org/1999/xlink" x="0px" y="0px"
	 width="100px" height="99.988px" viewBox="0 0 100 99.988" enable-background="new 0 0 100 99.988" xml:space="preserve">
<path fill="#FFFFFF" d="M32.019,64.072c-8.557,0-16.602-3.332-22.653-9.384C-3.122,42.197-3.122,21.872,9.368,9.384
	C15.418,3.332,23.462,0,32.02,0c8.559,0,16.603,3.332,22.652,9.384c6.051,6.051,9.384,14.095,9.384,22.653
	c0,8.556-3.333,16.602-9.384,22.651C48.622,60.74,40.577,64.072,32.019,64.072L32.019,64.072z M32.019,8.346
	c-6.326,0-12.278,2.465-16.753,6.937c-4.475,4.476-6.94,10.424-6.94,16.753c0,6.328,2.465,12.278,6.939,16.754
	c4.474,4.473,10.425,6.937,16.753,6.937c6.33,0,12.278-2.464,16.753-6.937c9.238-9.238,9.238-24.269,0-33.507
	C44.297,10.809,38.348,8.346,32.019,8.346L32.019,8.346z"/>
<path fill="#FFFFFF" d="M62.843,56.181c0,0-0.609-0.61-1.354-1.354c-0.745-0.744-2.114-0.596-3.039,0.33l-3.138,3.137
	c-0.928,0.928-1.076,2.295-0.332,3.04c0.746,0.746,1.354,1.355,1.354,1.355L62.843,56.181z"/>
<path fill="#FFFFFF" d="M59.07,65.425c0,0,0.758,0.757,1.686,1.685l14.756,14.757c0.928,0.927,2.444,0.927,3.371,0l3.137-3.137
	c0.928-0.928,0.928-2.444,0-3.372L67.265,60.601c-0.928-0.928-1.686-1.685-1.686-1.685L59.07,65.425z"/>
</svg>
